<svg width="128" height="128" viewBox="0 0 24 24" fill="none" xmlns="http://www.w3.org/2000/svg">
<circle cx="12" cy="12" r="11.5" fill="#18181B" stroke="#09090B"/>
<path d="M9.33341 6.06671V8.66671C9.33341 9.37395 9.61437 10.0522 10.1145 10.5523C10.6146 11.0524 11.2928 11.3334 12.0001 11.3334C12.7073 11.3334 13.3856 11.0524 13.8857 10.5523C14.3858 10.0522 14.6667 9.37395 14.6667 8.66671V6.06671M10.0001 14L9.33341 13.3334M14.0001 14L14.6667 13.3334M9.33341 16.6667L8.00008 18.6667M14.6667 16.6667L16.0001 18.6667M10.0001 16.6667C8.13341 16.6667 6.66675 15.2 6.66675 13.3334V10.6667C6.66675 9.25222 7.22865 7.89567 8.22885 6.89547C9.22904 5.89528 10.5856 5.33337 12.0001 5.33337C13.4146 5.33337 14.7711 5.89528 15.7713 6.89547C16.7715 7.89567 17.3334 9.25222 17.3334 10.6667V13.3334C17.3334 15.2 15.8667 16.6667 14.0001 16.6667H10.0001Z" stroke="#D4D4D8" stroke-width="1.5" stroke-linecap="round" stroke-linejoin="round"/>
</svg>
